# xmcd CD database file
# Generated: Tue Nov 19 13:10:10 2002 by KSCD
# 
# Track frame offsets:
#       300
#       13418
#       33774
#       51107
#       68512
#       89888
#       109891
#       125055
#       144249
#       164755
#       181327
#       199402
#       214587
#       232785
#       247935
#       264070
#       281075
#       296683
#       311439
#
# Disc length: 4399 seconds
#
# Revision: 1
# Processed by: cddbd v1.4PL0 Copyright (c) Steve Scherf et al.
# Submitted via: Kscd 1.3.3
#
DISCID=19112b13
DTITLE=Shania Twain - Up! (Green)
DYEAR=1900
DGENRE=
TTITLE0=Up!
TTITLE1=I'm Gonna Getcha Good
TTITLE2=She's Not Just a Pretty Face
TTITLE3=Juanita
TTITLE4=Forever and for Always
TTITLE5=Ain't No Particular Way
TTITLE6=It Only Hurts When I'm Breathing
TTITLE7=Nah!
TTITLE8=(Wanna Get To Know You) That Good
TTITLE9=C'est La Vie
TTITLE10=I'm Jealous
TTITLE11=Ka-Ching!
TTITLE12=Thank You Baby (For Makin' Someday Come So Soon)
TTITLE13=Waiter! Bring Me Water!
TTITLE14=What a Way to Wanna Be
TTITLE15=I Ain't Goin' Down
TTITLE16=I'm Not in the Mood (To Say No)
TTITLE17=In My Car (I'll Be The Driver)
TTITLE18=When You Kiss Me
EXTD=
EXTT0=
EXTT1=
EXTT2=
EXTT3=
EXTT4=
EXTT5=
EXTT6=
EXTT7=
EXTT8=
EXTT9=
EXTT10=
EXTT11=
EXTT12=
EXTT13=
EXTT14=
EXTT15=
EXTT16=
EXTT17=
EXTT18=
PLAYORDER=
